<svg width="65" height="64" viewBox="0 0 65 64" fill="none" xmlns="http://www.w3.org/2000/svg">
<g id="Dotted Shape">
<circle id="Ellipse 3" cx="1.39737" cy="62.6026" r="1.39737" transform="rotate(-90 1.39737 62.6026)" fill="#3056D3"/>
<circle id="Ellipse 51" cx="1.39737" cy="25.9913" r="1.39737" transform="rotate(-90 1.39737 25.9913)" fill="#3056D3"/>
<circle id="Ellipse 8" cx="13.6943" cy="62.6026" r="1.39737" transform="rotate(-90 13.6943 62.6026)" fill="#3056D3"/>
<circle id="Ellipse 52" cx="13.6943" cy="25.9913" r="1.39737" transform="rotate(-90 13.6943 25.9913)" fill="#3056D3"/>
<circle id="Ellipse 13" cx="25.9911" cy="62.6026" r="1.39737" transform="rotate(-90 25.9911 62.6026)" fill="#3056D3"/>
<circle id="Ellipse 53" cx="25.9911" cy="25.9913" r="1.39737" transform="rotate(-90 25.9911 25.9913)" fill="#3056D3"/>
<circle id="Ellipse 18" cx="38.288" cy="62.6026" r="1.39737" transform="rotate(-90 38.288 62.6026)" fill="#3056D3"/>
<circle id="Ellipse 54" cx="38.288" cy="25.9913" r="1.39737" transform="rotate(-90 38.288 25.9913)" fill="#3056D3"/>
<circle id="Ellipse 4" cx="1.39737" cy="50.3058" r="1.39737" transform="rotate(-90 1.39737 50.3058)" fill="#3056D3"/>
<circle id="Ellipse 9" cx="13.6943" cy="50.3058" r="1.39737" transform="rotate(-90 13.6943 50.3058)" fill="#3056D3"/>
<circle id="Ellipse 14" cx="25.9911" cy="50.3058" r="1.39737" transform="rotate(-90 25.9911 50.3058)" fill="#3056D3"/>
<circle id="Ellipse 19" cx="38.288" cy="50.3058" r="1.39737" transform="rotate(-90 38.288 50.3058)" fill="#3056D3"/>
<circle id="Ellipse 5" cx="1.39737" cy="38.0086" r="1.39737" transform="rotate(-90 1.39737 38.0086)" fill="#3056D3"/>
<circle id="Ellipse 10" cx="13.6943" cy="38.0086" r="1.39737" transform="rotate(-90 13.6943 38.0086)" fill="#3056D3"/>
<circle id="Ellipse 15" cx="25.9911" cy="38.0086" r="1.39737" transform="rotate(-90 25.9911 38.0086)" fill="#3056D3"/>
<circle id="Ellipse 20" cx="38.288" cy="38.0086" r="1.39737" transform="rotate(-90 38.288 38.0086)" fill="#3056D3"/>
</g>
</svg>
