<svg width="120" height="45" viewBox="0 0 120 45" fill="none" xmlns="http://www.w3.org/2000/svg">
<g id="Group 1000001900">
<rect id="Rectangle 4403" width="120" height="45" rx="6" fill="#4064AC"/>
<path id="Vector" d="M62.2988 21H60.749H60.1955V20.3548V18.3548V17.7097H60.749H61.9113C62.2158 17.7097 62.4648 17.4516 62.4648 17.0645V13.6452C62.4648 13.2903 62.2434 13 61.9113 13H59.8911C57.7047 13 56.1826 14.8065 56.1826 17.4839V20.2903V20.9355H55.6291H53.7472C53.3598 20.9355 53 21.2903 53 21.8065V24.129C53 24.5806 53.3044 25 53.7472 25H55.5738H56.1273V25.6452V32.129C56.1273 32.5806 56.4317 33 56.8745 33H59.4759C59.642 33 59.7804 32.9032 59.8911 32.7742C60.0018 32.6452 60.0848 32.4194 60.0848 32.2258V25.6774V25.0323H60.666H61.9113C62.2711 25.0323 62.5479 24.7742 62.6032 24.3871V24.3548V24.3226L62.9907 22.0968C63.0183 21.871 62.9906 21.6129 62.8246 21.3548C62.7692 21.1935 62.5202 21.0323 62.2988 21Z" fill="white"/>
</g>
</svg>
