<svg width="120" height="45" viewBox="0 0 120 45" fill="none" xmlns="http://www.w3.org/2000/svg">
<g id="Group 1000001902">
<rect id="Rectangle 4403" width="120" height="45" rx="6" fill="#D64937"/>
<path id="Vector" d="M71.8477 22.1713H63.2963V24.643H69.4342C69.1065 28.0743 66.2461 29.5574 63.4751 29.5574C59.9592 29.5574 56.8306 26.8821 56.8306 23.0146C56.8306 19.2925 59.8102 16.4719 63.4751 16.4719C66.2759 16.4719 67.9742 18.2457 67.9742 18.2457L69.7024 16.4719C69.7024 16.4719 67.3783 14.0001 63.3559 14.0001C58.0522 13.9711 54 18.3038 54 22.9855C54 27.5218 57.8139 32 63.4453 32C68.4212 32 71.9967 28.7141 71.9967 23.7997C72.0264 22.782 71.8477 22.1713 71.8477 22.1713Z" fill="white"/>
</g>
</svg>
