<svg width="70" height="70" viewBox="0 0 70 70" fill="none" xmlns="http://www.w3.org/2000/svg">
<g id="Frame 36">
<rect id="Rectangle 4427" width="70" height="70" rx="5" fill="#3056D3" fill-opacity="0.05"/>
<path id="Vector" d="M44.8182 47H39.5584C38.3896 47 37.4156 46.0256 37.4156 44.8563V40.5688C37.4156 40.1401 37.0649 39.7893 36.6364 39.7893H33.4026C32.974 39.7893 32.6234 40.1401 32.6234 40.5688V44.8173C32.6234 45.9866 31.6494 46.961 30.4805 46.961H25.1429C23.974 46.961 23 45.9866 23 44.8173V31.2144C23 30.6297 23.3117 30.084 23.8182 29.7722L34.1039 23.2631C34.6494 22.9123 35.3896 22.9123 35.9351 23.2631L46.2208 29.7722C46.7273 30.084 47 30.6297 47 31.2144V44.7783C47 46.0256 46.026 47 44.8182 47ZM33.3636 38.4251H36.5974C37.7662 38.4251 38.7403 39.3995 38.7403 40.5688V44.8173C38.7403 45.246 39.0909 45.5968 39.5195 45.5968H44.8182C45.2468 45.5968 45.5974 45.246 45.5974 44.8173V31.2533C45.5974 31.1364 45.5195 31.0195 45.4416 30.9415L35.1948 24.4324C35.0779 24.3544 34.9221 24.3544 34.8442 24.4324L24.5584 30.9415C24.4416 31.0195 24.4026 31.1364 24.4026 31.2533V44.8563C24.4026 45.285 24.7532 45.6358 25.1818 45.6358H30.4805C30.9091 45.6358 31.2597 45.285 31.2597 44.8563V40.5688C31.2208 39.3995 32.1948 38.4251 33.3636 38.4251Z" fill="#3056D3"/>
</g>
</svg>
