<svg width="40" height="40" viewBox="0 0 40 40" fill="none" xmlns="http://www.w3.org/2000/svg">
<g id="Frame" clip-path="url(#clip0_140_238)">
<path id="Vector" opacity="0.72" d="M39.9359 18.3521C39.9163 18.1526 39.8239 17.9672 39.6764 17.8315C39.5288 17.6957 39.3364 17.6191 39.1359 17.6161H19.2C18.6586 17.6293 18.1301 17.7839 17.667 18.0646C17.2039 18.3453 16.8222 18.7423 16.56 19.2161C16.3172 19.6398 16.1895 20.1197 16.1895 20.6081C16.1895 21.0965 16.3172 21.5763 16.56 22.0001C16.6293 22.1333 16.7321 22.2462 16.8584 22.3276C16.9847 22.409 17.1299 22.456 17.2799 22.4641H39.184C39.3845 22.4611 39.5769 22.3844 39.7244 22.2487C39.872 22.1129 39.9643 21.9276 39.984 21.7281C39.984 21.1041 39.984 20.5761 39.984 20.1281C39.984 19.6801 39.9839 18.9601 39.9359 18.3521Z" fill="#3056D3"/>
<path id="Vector_2" d="M39.9203 18.3521C39.9044 18.1539 39.8154 17.9688 39.6705 17.8327C39.5256 17.6967 39.3351 17.6194 39.1363 17.6161H35.9363C35.8241 17.6174 35.7133 17.6422 35.6113 17.6891C35.5093 17.736 35.4184 17.8038 35.3443 17.8881C35.2697 17.9692 35.2138 18.0657 35.1807 18.1707C35.1475 18.2758 35.1379 18.3869 35.1523 18.4961C35.1523 19.0081 35.1523 19.5201 35.1523 20.0961C35.1483 22.6492 34.5013 25.1602 33.2709 27.3973C32.0405 29.6343 30.2663 31.5255 28.1123 32.8961C27.8883 33.0401 27.6804 33.2161 27.4404 33.3441C26.2663 34.0127 25.0067 34.5187 23.6963 34.8481L25.7924 38.5761C25.8635 38.6994 25.9663 38.8014 26.09 38.8717C26.2138 38.942 26.354 38.9781 26.4963 38.9761C26.5809 38.9914 26.6677 38.9914 26.7523 38.9761L27.2643 38.7681L27.7283 38.5761C28.4361 38.2821 29.1254 37.9455 29.7924 37.5681C32.9119 35.8108 35.5039 33.2502 37.299 30.1524C39.0942 27.0545 40.0269 23.5324 40.0004 19.9521C40.0004 19.3601 39.9683 18.8961 39.9203 18.3521Z" fill="#3056D3"/>
<path id="Vector_3" d="M28.5951 33.5388C28.4876 33.3563 28.3167 33.2196 28.115 33.1548H27.891C27.7521 33.1559 27.6153 33.1887 27.491 33.2508C25.2095 34.549 22.6281 35.2275 20.0031 35.2188C15.9744 35.2103 12.1132 33.6062 9.26445 30.7575C6.41573 27.9088 4.81158 24.0475 4.80312 20.0188C4.81158 15.9901 6.41573 12.1288 9.26445 9.28011C12.1132 6.43139 15.9744 4.82725 20.0031 4.81879C22.6269 4.81963 25.2059 5.49748 27.491 6.78679C27.6105 6.86261 27.7496 6.90156 27.891 6.89879H28.067C28.1767 6.87457 28.2802 6.82797 28.3711 6.7619C28.4619 6.69582 28.5383 6.61169 28.5951 6.51479L30.1951 3.73079C30.3009 3.54563 30.33 3.32642 30.2762 3.12009C30.2223 2.91375 30.0898 2.73669 29.907 2.62679C26.8954 0.924898 23.4944 0.0319195 20.0352 0.034797C14.7334 0.0432594 9.65124 2.15311 5.90234 5.90201C2.15345 9.6509 0.0436187 14.7331 0.0351562 20.0348C0.0436187 25.3365 2.15345 30.4187 5.90234 34.1676C9.65124 37.9165 14.7334 40.0263 20.0352 40.0348C23.4944 40.0377 26.8954 39.1447 29.907 37.4428C29.9986 37.3914 30.0789 37.3222 30.1432 37.2392C30.2074 37.1562 30.2544 37.0612 30.2812 36.9597C30.3081 36.8583 30.3144 36.7524 30.2996 36.6485C30.2848 36.5446 30.2492 36.4447 30.1951 36.3548L28.5951 33.5388Z" fill="#3056D3"/>
<path id="Vector_4" opacity="0.56" d="M22.2883 22.4H17.2324C17.089 22.3898 16.9501 22.3452 16.8275 22.27C16.705 22.1948 16.6024 22.0912 16.5283 21.968L25.8244 38.432C25.8956 38.5553 25.9983 38.6573 26.1221 38.7277C26.2458 38.798 26.386 38.834 26.5283 38.832C26.6183 38.8472 26.7104 38.8472 26.8004 38.832C27.8576 38.4514 28.8801 37.9803 29.8564 37.424C29.948 37.3726 30.0281 37.3034 30.0924 37.2204C30.1567 37.1375 30.2036 37.0424 30.2305 36.9409C30.2573 36.8395 30.2636 36.7336 30.2488 36.6297C30.234 36.5258 30.1985 36.4259 30.1443 36.336L22.2883 22.4Z" fill="#3056D3"/>
</g>
<defs>
<clipPath id="clip0_140_238">
<rect width="40" height="40" fill="white"/>
</clipPath>
</defs>
</svg>
