<svg width="70" height="70" viewBox="0 0 70 70" fill="none" xmlns="http://www.w3.org/2000/svg">
<g id="Frame 38">
<rect id="Rectangle 4430" width="70" height="70" rx="5" fill="#3056D3" fill-opacity="0.05"/>
<path id="Vector" d="M46.3636 26H23.6364C22.1818 26 21 27.1678 21 28.6052V42.3948C21 43.8322 22.1818 45 23.6364 45H46.3636C47.8182 45 49 43.8322 49 42.3948V28.6052C49 27.1678 47.8182 26 46.3636 26ZM46.3636 27.5721C46.5909 27.5721 46.7727 27.617 46.9545 27.7518L35.6364 34.5343C35.2273 34.7589 34.7727 34.7589 34.3636 34.5343L23.0455 27.7518C23.2273 27.6619 23.4091 27.5721 23.6364 27.5721H46.3636ZM46.3636 43.383H23.6364C23.0909 43.383 22.5909 42.9338 22.5909 42.3499V29.3239L33.5 35.8818C33.9545 36.1513 34.4545 36.2861 34.9545 36.2861C35.4545 36.2861 35.9545 36.1513 36.4091 35.8818L47.3182 29.3239V42.3499C47.4091 42.9338 46.9091 43.383 46.3636 43.383Z" fill="#3056D3"/>
</g>
</svg>
