<svg width="70" height="70" viewBox="0 0 70 70" fill="none" xmlns="http://www.w3.org/2000/svg">
<rect width="70" height="70" rx="5" fill="#3056D3" fill-opacity="0.05"/>
<path d="M45.6149 37.1387C45.5307 36.1704 44.7308 35.4968 43.7626 35.4968H25.8287C24.8604 35.4968 24.1027 36.2125 23.9764 37.1387L23.0923 45.9793C23.0502 46.4845 23.2186 47.0318 23.5554 47.4106C23.8922 47.7895 24.3973 48 24.9446 48H44.6887C45.1939 48 45.6991 47.7895 46.078 47.4106C46.4148 47.0318 46.5832 46.5266 46.5411 45.9793L45.6149 37.1387ZM44.9413 46.4424C44.8992 46.4845 44.815 46.5687 44.6466 46.5687H24.9446C24.8183 46.5687 24.692 46.4845 24.6499 46.4424C24.6078 46.4003 24.5236 46.3161 24.5657 46.1477L25.4498 37.265C25.4498 37.0545 25.6182 36.9282 25.8287 36.9282H43.8047C44.0152 36.9282 44.1415 37.0545 44.1835 37.265L45.0676 46.1477C45.0255 46.274 44.9834 46.4003 44.9413 46.4424Z" fill="#3056D3"/>
<path d="M34.7965 38.7805C33.1547 38.7805 31.8496 40.0856 31.8496 41.7274C31.8496 43.3692 33.1547 44.6743 34.7965 44.6743C36.4383 44.6743 37.7434 43.3692 37.7434 41.7274C37.7434 40.0856 36.4383 38.7805 34.7965 38.7805ZM34.7965 43.2008C33.9966 43.2008 33.3231 42.5273 33.3231 41.7274C33.3231 40.9275 33.9966 40.254 34.7965 40.254C35.5964 40.254 36.2699 40.9275 36.2699 41.7274C36.2699 42.5273 35.5964 43.2008 34.7965 43.2008Z" fill="#3056D3"/>
<path d="M24.1022 29.8556C24.1864 31.7079 25.8282 32.4657 26.6702 32.4657H29.617C29.6591 32.4657 29.6591 32.4657 29.6591 32.4657C30.9221 32.3815 32.185 31.5395 32.185 29.8556V28.8453C33.5743 28.8453 36.7737 28.8453 38.163 28.8453V29.8556C38.163 31.5395 39.4259 32.3815 40.6889 32.4657H40.731H43.6358C44.4777 32.4657 46.1196 31.7079 46.2038 29.8556C46.2038 29.7293 46.2038 29.2662 46.2038 28.8453C46.2038 28.5085 46.2038 28.2138 46.2038 28.1717C46.2038 28.1296 46.2038 28.0875 46.2038 28.0875C46.0775 26.9087 45.6565 25.9405 44.9408 25.1827L44.8987 25.1406C43.8463 24.1723 42.5833 23.6251 41.6151 23.2883C38.7945 22.1937 35.2582 22.1937 35.0898 22.1937C32.606 22.2358 31.0063 22.4463 28.6067 23.2883C27.6805 23.583 26.4176 24.1302 25.3651 25.0985L25.323 25.1406C24.6073 25.8984 24.1864 26.8666 24.0601 28.0454C24.0601 28.0875 24.0601 28.1296 24.0601 28.1296C24.0601 28.2138 24.0601 28.4664 24.0601 28.8032C24.1022 29.182 24.1022 29.6872 24.1022 29.8556ZM26.3755 26.151C27.2174 25.3932 28.2699 24.9301 29.154 24.5933C31.3431 23.7935 32.7744 23.6251 35.174 23.583C35.3424 23.583 38.6261 23.6251 41.152 24.5933C42.036 24.9301 43.0885 25.3511 43.9305 26.151C44.3935 26.6561 44.6882 27.3297 44.7724 28.1296C44.7724 28.2559 44.7724 28.4664 44.7724 28.8032C44.7724 29.2241 44.7724 29.6872 44.7724 29.8135C44.7303 30.7818 43.8042 30.9923 43.6779 30.9923H40.7731C40.3521 30.9502 39.6785 30.7818 39.6785 29.8556V28.1296C39.6785 27.7928 39.468 27.5402 39.1734 27.4139C38.9208 27.3297 31.5536 27.3297 31.301 27.4139C31.0063 27.4981 30.7958 27.7928 30.7958 28.1296V29.8556C30.7958 30.7818 30.1222 30.9502 29.7012 30.9923H26.7964C26.6702 30.9923 25.744 30.7818 25.7019 29.8135C25.7019 29.6872 25.7019 29.2241 25.7019 28.8032C25.7019 28.4664 25.7019 28.298 25.7019 28.1717C25.6177 27.3297 25.9124 26.6561 26.3755 26.151Z" fill="#3056D3"/>
</svg>
