<svg width="105" height="22" viewBox="0 0 105 22" fill="none" xmlns="http://www.w3.org/2000/svg">
<g id="TailGrids">
<path d="M7.52239 4.65672V21.6077H4.54158V4.65672H0V1.85501H12.0512V4.65672H7.52239Z" fill="#362122"/>
<path d="M22.2473 9.14712H25.1386V21.6077H22.2473V20.3028C21.0618 21.4115 19.7868 21.9659 18.4222 21.9659C16.6994 21.9659 15.2751 21.3433 14.1493 20.0981C13.032 18.8273 12.4733 17.2409 12.4733 15.339C12.4733 13.4712 13.032 11.9147 14.1493 10.6695C15.2665 9.42431 16.6652 8.80171 18.3454 8.80171C19.7953 8.80171 21.0959 9.39872 22.2473 10.5928V9.14712ZM15.4158 15.339C15.4158 16.533 15.7356 17.5053 16.3753 18.2559C17.032 19.0149 17.8593 19.3945 18.8571 19.3945C19.9232 19.3945 20.7846 19.0277 21.4414 18.2942C22.0981 17.5352 22.4264 16.5714 22.4264 15.403C22.4264 14.2345 22.0981 13.2708 21.4414 12.5117C20.7846 11.7697 19.9318 11.3987 18.8827 11.3987C17.8934 11.3987 17.0661 11.774 16.4009 12.5245C15.7441 13.2836 15.4158 14.2217 15.4158 15.339Z" fill="#362122"/>
<path d="M31.6503 9.14712V21.6077H28.7719V9.14712H31.6503ZM28.3369 3.96588C28.3369 3.46269 28.5203 3.02772 28.887 2.66098C29.2537 2.29424 29.693 2.11087 30.2047 2.11087C30.7249 2.11087 31.1684 2.29424 31.5352 2.66098C31.9019 3.01919 32.0853 3.45842 32.0853 3.97868C32.0853 4.49893 31.9019 4.94243 31.5352 5.30917C31.177 5.67591 30.7377 5.85927 30.2175 5.85927C29.6972 5.85927 29.2537 5.67591 28.887 5.30917C28.5203 4.94243 28.3369 4.49467 28.3369 3.96588Z" fill="#362122"/>
<path d="M38.1748 0V21.6077H35.2964V0H38.1748Z" fill="#362122"/>
<path d="M52.5288 11.322H60.6908V11.9744C60.6908 13.4584 60.516 14.7719 60.1663 15.9147C59.8252 16.9723 59.2495 17.9616 58.4392 18.8827C56.6055 20.9467 54.2729 21.9787 51.4414 21.9787C48.678 21.9787 46.3113 20.9808 44.3412 18.9851C42.371 16.9808 41.3859 14.5757 41.3859 11.7697C41.3859 8.90405 42.3881 6.47335 44.3923 4.47761C46.3966 2.47335 48.8358 1.47122 51.71 1.47122C53.2537 1.47122 54.6951 1.78678 56.0341 2.41791C57.3134 3.04904 58.5714 4.07249 59.8081 5.48827L57.6844 7.52239C56.064 5.36461 54.0896 4.28571 51.7612 4.28571C49.6716 4.28571 47.919 5.0064 46.5032 6.44776C45.0874 7.86354 44.3795 9.63753 44.3795 11.7697C44.3795 13.9701 45.1684 15.7825 46.7463 17.2068C48.2217 18.5288 49.8209 19.1898 51.5437 19.1898C53.0107 19.1898 54.3284 18.6951 55.4968 17.7058C56.6652 16.7079 57.3177 15.5139 57.4542 14.1237H52.5288V11.322Z" fill="#362122"/>
<path d="M63.9019 9.14712H66.7804V10.2601C67.3092 9.70576 67.7783 9.32623 68.1876 9.12154C68.6055 8.90832 69.1002 8.80171 69.6716 8.80171C70.4307 8.80171 71.2239 9.04904 72.0512 9.54371L70.7335 12.1791C70.1876 11.7868 69.6546 11.5906 69.1343 11.5906C67.565 11.5906 66.7804 12.7761 66.7804 15.1471V21.6077H63.9019V9.14712Z" fill="#362122"/>
<path d="M76.9893 9.14712V21.6077H74.1109V9.14712H76.9893ZM73.6759 3.96588C73.6759 3.46269 73.8593 3.02772 74.226 2.66098C74.5928 2.29424 75.032 2.11087 75.5437 2.11087C76.064 2.11087 76.5075 2.29424 76.8742 2.66098C77.2409 3.01919 77.4243 3.45842 77.4243 3.97868C77.4243 4.49893 77.2409 4.94243 76.8742 5.30917C76.516 5.67591 76.0768 5.85927 75.5565 5.85927C75.0362 5.85927 74.5928 5.67591 74.226 5.30917C73.8593 4.94243 73.6759 4.49467 73.6759 3.96588Z" fill="#362122"/>
<path d="M89.8209 0H92.7122V21.6077H89.8209V20.3028C88.6866 21.4115 87.403 21.9659 85.9701 21.9659C84.2644 21.9659 82.8486 21.3433 81.7228 20.0981C80.6055 18.8273 80.0469 17.2409 80.0469 15.339C80.0469 13.4797 80.6055 11.9275 81.7228 10.6823C82.8316 9.42857 84.226 8.80171 85.9062 8.80171C87.3646 8.80171 88.6695 9.39872 89.8209 10.5928V0ZM82.9893 15.339C82.9893 16.533 83.3092 17.5053 83.9488 18.2559C84.6055 19.0149 85.4328 19.3945 86.4307 19.3945C87.4968 19.3945 88.3582 19.0277 89.0149 18.2942C89.6716 17.5352 90 16.5714 90 15.403C90 14.2345 89.6716 13.2708 89.0149 12.5117C88.3582 11.7697 87.5053 11.3987 86.4563 11.3987C85.4669 11.3987 84.6397 11.774 83.9744 12.5245C83.3177 13.2836 82.9893 14.2217 82.9893 15.339Z" fill="#362122"/>
<path d="M103.586 11.2708L101.207 12.5373C100.832 11.7697 100.367 11.3859 99.8124 11.3859C99.548 11.3859 99.322 11.4755 99.1343 11.6546C98.9467 11.8252 98.8529 12.0469 98.8529 12.3198C98.8529 12.7974 99.4072 13.2708 100.516 13.7399C102.043 14.3966 103.07 15.0021 103.599 15.5565C104.128 16.1109 104.392 16.8571 104.392 17.7953C104.392 18.9979 103.949 20.0043 103.062 20.8145C102.2 21.5821 101.16 21.9659 99.9403 21.9659C97.8507 21.9659 96.371 20.9467 95.5011 18.9083L97.9574 17.7697C98.2985 18.3667 98.5586 18.7463 98.7377 18.9083C99.0874 19.2324 99.5053 19.3945 99.9915 19.3945C100.964 19.3945 101.45 18.951 101.45 18.064C101.45 17.5522 101.075 17.0746 100.324 16.6311C100.034 16.4861 99.7441 16.3454 99.4542 16.209C99.1642 16.0725 98.8699 15.9318 98.5714 15.7868C97.7356 15.3774 97.1471 14.968 96.806 14.5586C96.371 14.0384 96.1535 13.3689 96.1535 12.5501C96.1535 11.467 96.5245 10.5714 97.2665 9.86354C98.0256 9.15565 98.9467 8.80171 100.03 8.80171C101.625 8.80171 102.81 9.62473 103.586 11.2708Z" fill="#362122"/>
</g>
</svg>
